<svg xmlns="http://www.w3.org/2000/svg" version="1.1" xmlns:xlink="http://www.w3.org/1999/xlink" xmlns:svgjs="http://svgjs.dev/svgjs" width="1500" height="1500" viewBox="0 0 1500 1500"><rect width="1500" height="1500" fill="#000000"></rect><g transform="matrix(0.6666666666666666,0,0,0.6666666666666666,249.50000000000006,249.50109328007943)"><svg viewBox="0 0 280 280" data-background-color="#333366" preserveAspectRatio="xMidYMid meet" height="1500" width="1500" xmlns="http://www.w3.org/2000/svg" xmlns:xlink="http://www.w3.org/1999/xlink"><g id="tight-bounds" transform="matrix(1,0,0,1,0.13999999999998636,0.13984166892848293)"><svg viewBox="0 0 279.72 279.72" height="279.72" width="279.72"><g><svg viewBox="0 0 279.72 279.72" height="279.72" width="279.72"><g><svg viewBox="0 0 279.72 279.72" height="279.72" width="279.72"><g id="textblocktransform"><svg viewBox="0 0 279.72 279.72" height="279.72" width="279.72" id="textblock"><g><svg viewBox="0 0 279.72 279.72" height="279.72" width="279.72"><g transform="matrix(1,0,0,1,57.446704652707865,57.446704652707865)"><svg viewBox="0 0 164.8265906945843 164.8265906945843" height="164.8265906945843" width="164.8265906945843"><g id="icon-0"><circle r="82" cx="82.41329534729215" cy="82.41329534729215" fill="#ffffff" data-fill-palette-color="accent"></circle><svg xmlns="http://www.w3.org/2000/svg" xmlns:xlink="http://www.w3.org/1999/xlink" version="1.1" x="24.723988604187646" y="24.72398860418764" viewBox="8 8.899999999999999 84.1 82.1" style="enable-background:new 0 0 100 100;" xml:space="preserve" height="115.378613486209" width="115.378613486209" class="icon-xg-0" data-fill-palette-color="quaternary" id="xg-0"><g fill="#333366" data-fill-palette-color="quaternary"><path d="M81 9c-6.1 0-11 4.9-11 11 0 1.2 0.2 2.4 0.6 3.6L54.3 39.9C53 39.3 51.5 39 50 39c-6.1 0-11 4.9-11 11s4.9 11 11 11 11-4.9 11-11c0-2.4-0.8-4.5-2-6.3l15.1-15.1C76 30.1 78.4 31 81 31c6.1 0 11-4.9 11-11S87.1 9 81 9zM50 55c-2.8 0-5-2.2-5-5s2.2-5 5-5 5 2.2 5 5S52.8 55 50 55zM81 25c-2.8 0-5-2.2-5-5s2.2-5 5-5 5 2.2 5 5S83.8 25 81 25z" fill="#000000" data-fill-palette-color="quaternary"></path><path d="M50 31c6.1 0 11-4.9 11-11S56.1 9 50 9s-11 4.9-11 11S43.9 31 50 31zM50 15c2.8 0 5 2.2 5 5s-2.2 5-5 5-5-2.2-5-5S47.2 15 50 15z" fill="#000000" data-fill-palette-color="quaternary"></path><path d="M81 39c-6.1 0-11 4.9-11 11s4.9 11 11 11 11-4.9 11-11S87.1 39 81 39zM81 55c-2.8 0-5-2.2-5-5s2.2-5 5-5 5 2.2 5 5S83.8 55 81 55z" fill="#000000" data-fill-palette-color="quaternary"></path><path d="M19 91c6.1 0 11-4.9 11-11s-4.9-11-11-11S8 73.9 8 80 12.9 91 19 91zM19 75c2.8 0 5 2.2 5 5s-2.2 5-5 5-5-2.2-5-5S16.2 75 19 75z" fill="#000000" data-fill-palette-color="quaternary"></path><path d="M81 69c-5 0-9.3 3.4-10.6 8h-9.9c-1.3-4.6-5.5-8-10.6-8-3 0-5.8 1.2-7.8 3.2l-15-15C29 55.3 30 52.8 30 50c0-5-3.4-9.3-8-10.6v-8.9c4.6-1.3 8-5.5 8-10.6 0-6.1-4.9-11-11-11S8 13.9 8 20c0 5 3.4 9.3 8 10.6v8.9C11.4 40.7 8 45 8 50c0 6.1 4.9 11 11 11 1.1 0 2.1-0.2 3.1-0.4l17.2 17.2C39.1 78.5 39 79.2 39 80c0 6.1 4.9 11 11 11 5 0 9.3-3.4 10.6-8h9.9c1.3 4.6 5.5 8 10.6 8 6.1 0 11-4.9 11-11S87.1 69 81 69zM14 20c0-2.8 2.2-5 5-5s5 2.2 5 5-2.2 5-5 5S14 22.8 14 20zM14 50c0-2.8 2.2-5 5-5s5 2.2 5 5-2.2 5-5 5S14 52.8 14 50zM50 85c-2.8 0-5-2.2-5-5s2.2-5 5-5 5 2.2 5 5S52.8 85 50 85zM81 85c-2.8 0-5-2.2-5-5s2.2-5 5-5 5 2.2 5 5S83.8 85 81 85z" fill="#000000" data-fill-palette-color="quaternary"></path></g></svg></g></svg></g><g id="text-0"><path d="M24.501 86.886v0c1.647 0.559 2.911 1.435 3.791 2.63 0.876 1.186 1.372 2.625 1.489 4.318 0.114 1.699-0.169 3.553-0.85 5.563v0c-0.351 1.034-0.735 2.006-1.154 2.914-0.425 0.906-0.868 1.715-1.329 2.426-0.452 0.706-0.921 1.308-1.406 1.804v0l-3.33-1.129c0.73-0.788 1.497-1.814 2.299-3.077 0.805-1.27 1.457-2.639 1.956-4.109v0c0.465-1.37 0.673-2.582 0.626-3.633-0.047-1.052-0.328-1.926-0.841-2.621-0.516-0.689-1.225-1.187-2.128-1.493v0c-0.903-0.306-1.73-0.37-2.48-0.191-0.749 0.172-1.547 0.64-2.394 1.403-0.853 0.761-1.861 1.881-3.023 3.36v0c-0.837 1.038-1.66 1.916-2.469 2.634-0.805 0.726-1.63 1.276-2.478 1.65-0.847 0.374-1.732 0.57-2.656 0.587-0.931 0.015-1.936-0.161-3.017-0.527v0c-1.476-0.501-2.607-1.303-3.393-2.407-0.795-1.1-1.25-2.411-1.365-3.934-0.115-1.523 0.12-3.148 0.705-4.874v0c0.516-1.522 1.13-2.867 1.842-4.037 0.712-1.169 1.474-2.192 2.287-3.07v0l2.616 2.099c-0.739 0.815-1.44 1.734-2.104 2.758-0.663 1.024-1.201 2.145-1.614 3.364v0c-0.393 1.16-0.553 2.182-0.478 3.067 0.072 0.891 0.346 1.634 0.82 2.229 0.477 0.588 1.117 1.018 1.92 1.29v0c0.929 0.315 1.768 0.387 2.517 0.214 0.751-0.179 1.519-0.624 2.304-1.334 0.791-0.709 1.725-1.718 2.801-3.028v0c1.145-1.426 2.25-2.583 3.315-3.471 1.058-0.89 2.165-1.466 3.319-1.729 1.152-0.256 2.453-0.138 3.902 0.354z" fill="#ffffff" data-fill-palette-color="primary"></path><path d="M24.499 58.356l2.002-2.992 18.212 12.19-2.003 2.992zM18.695 52.261v0c0.306-0.457 0.728-0.756 1.267-0.898 0.537-0.151 1.135-0.007 1.793 0.435v0c0.636 0.426 0.995 0.921 1.077 1.487 0.08 0.556-0.033 1.062-0.338 1.519v0c-0.333 0.497-0.769 0.812-1.31 0.944-0.542 0.122-1.132-0.029-1.768-0.455v0c-0.659-0.441-1.027-0.93-1.103-1.467-0.078-0.546 0.049-1.068 0.382-1.565z" fill="#ffffff" data-fill-palette-color="primary"></path><path d="M66.435 45.879v0c-2.087 1.744-4.365 2.415-6.833 2.011-2.473-0.399-4.917-2.043-7.33-4.931v0c-2.414-2.888-3.603-5.597-3.57-8.128 0.039-2.535 1.102-4.675 3.19-6.419v0c0.881-0.736 1.736-1.265 2.564-1.586 0.834-0.325 1.65-0.499 2.447-0.522 0.793-0.028 1.549 0.047 2.269 0.226v0l0.185-0.154c-0.244-0.249-0.616-0.618-1.116-1.108-0.494-0.494-0.873-0.898-1.136-1.213v0l-5.608-6.71 2.754-2.302 19.923 23.838-2.227 1.861-2.295-1.917-0.12 0.1c0.065 0.762 0.02 1.538-0.135 2.329-0.159 0.786-0.474 1.57-0.944 2.353-0.465 0.778-1.138 1.536-2.018 2.272zM64.962 43.221v0c1.778-1.486 2.621-3.015 2.529-4.59-0.086-1.578-0.95-3.35-2.592-5.314v0l-0.421-0.504c-1.749-2.093-3.437-3.407-5.063-3.943-1.626-0.546-3.37-0.04-5.233 1.517v0c-1.484 1.24-2.104 2.76-1.86 4.561 0.248 1.805 1.202 3.701 2.862 5.686v0c1.677 2.007 3.351 3.256 5.021 3.747 1.666 0.485 3.251 0.098 4.756-1.16z" fill="#ffffff" data-fill-palette-color="primary"></path><path d="M120.592 17.83v0c-0.174-0.965-0.056-1.701 0.355-2.206 0.404-0.504 0.941-0.817 1.613-0.938v0c0.698-0.126 1.332-0.025 1.899 0.304 0.575 0.328 0.95 0.974 1.124 1.94v0c0.179 0.993 0.057 1.746-0.366 2.261-0.415 0.52-0.972 0.843-1.67 0.969v0c-0.671 0.121-1.285 0.009-1.842-0.336-0.563-0.337-0.934-1.002-1.113-1.994zM118.197 4.551v0c-0.184-1.02-0.069-1.776 0.344-2.268 0.406-0.49 0.945-0.796 1.616-0.917v0c0.698-0.126 1.33-0.031 1.897 0.284 0.573 0.314 0.951 0.981 1.135 2.001v0c0.174 0.965 0.05 1.709-0.372 2.23-0.416 0.513-0.974 0.833-1.673 0.959v0c-0.671 0.121-1.284 0.012-1.84-0.326-0.564-0.344-0.933-0.998-1.107-1.963z" fill="#ffffff" data-fill-palette-color="primary"></path><path d="M148.682 16.135v0c0.05-0.98 0.333-1.669 0.848-2.067 0.508-0.399 1.103-0.581 1.783-0.546v0c0.709 0.036 1.302 0.279 1.781 0.728 0.485 0.45 0.703 1.165 0.653 2.145v0c-0.052 1.007-0.342 1.714-0.872 2.118-0.523 0.412-1.138 0.6-1.847 0.564v0c-0.681-0.035-1.253-0.284-1.717-0.747-0.471-0.456-0.681-1.188-0.629-2.195zM149.373 2.659v0c0.053-1.035 0.337-1.745 0.851-2.129 0.507-0.385 1.102-0.56 1.782-0.526v0c0.709 0.036 1.303 0.272 1.782 0.708 0.486 0.436 0.703 1.172 0.65 2.207v0c-0.05 0.98-0.34 1.675-0.87 2.087-0.522 0.405-1.138 0.59-1.847 0.553v0c-0.681-0.035-1.254-0.28-1.717-0.736-0.471-0.463-0.681-1.184-0.631-2.164z" fill="#ffffff" data-fill-palette-color="primary"></path><path d="M207.863 38.779v0c-2.29-1.468-3.613-3.44-3.967-5.916-0.361-2.479 0.474-5.303 2.505-8.471v0c2.031-3.169 4.259-5.116 6.683-5.843 2.43-0.723 4.79-0.35 7.081 1.117v0c0.966 0.62 1.727 1.277 2.282 1.971 0.561 0.698 0.971 1.424 1.231 2.178 0.264 0.748 0.419 1.492 0.466 2.232v0l0.202 0.13c0.164-0.308 0.405-0.773 0.722-1.397 0.323-0.62 0.595-1.102 0.816-1.447v0l4.72-7.362 3.022 1.937-16.766 26.154-2.443-1.565 1.14-2.765-0.131-0.085c-0.707 0.291-1.461 0.481-2.262 0.571-0.797 0.084-1.64 0.019-2.528-0.195-0.882-0.21-1.806-0.625-2.773-1.244zM209.957 36.576v0c1.95 1.25 3.663 1.596 5.137 1.037 1.48-0.555 2.911-1.911 4.292-4.067v0l0.355-0.553c1.472-2.296 2.219-4.3 2.243-6.012 0.033-1.714-0.973-3.227-3.017-4.537v0c-1.628-1.044-3.264-1.179-4.908-0.407-1.648 0.778-3.17 2.257-4.567 4.435v0c-1.412 2.202-2.101 4.173-2.068 5.914 0.037 1.734 0.881 3.131 2.533 4.19z" fill="#ffffff" data-fill-palette-color="primary"></path><path d="M255.596 52.781v0c1.16 1.478 1.836 2.999 2.028 4.563 0.187 1.569-0.081 3.097-0.806 4.585-0.719 1.484-1.862 2.84-3.427 4.068v0l-1.707 1.34-9.264-11.806c-1.914 1.573-3.007 3.235-3.277 4.986-0.271 1.751 0.268 3.486 1.616 5.204v0c0.859 1.095 1.72 1.984 2.584 2.668 0.868 0.69 1.851 1.333 2.948 1.932v0l-2.479 1.945c-1.08-0.576-2.047-1.223-2.902-1.941-0.851-0.712-1.74-1.659-2.668-2.841v0c-1.28-1.631-2.08-3.333-2.401-5.106-0.316-1.777-0.087-3.531 0.687-5.262 0.769-1.736 2.107-3.351 4.011-4.845v0c1.888-1.482 3.758-2.435 5.608-2.861 1.85-0.426 3.588-0.352 5.214 0.221 1.63 0.578 3.042 1.628 4.235 3.15zM253.255 54.564v0c-1.061-1.352-2.333-2.078-3.818-2.177-1.479-0.104-3.048 0.375-4.707 1.438v0l6.886 8.777c0.985-0.773 1.724-1.596 2.215-2.468 0.496-0.867 0.714-1.772 0.655-2.716-0.065-0.939-0.475-1.891-1.231-2.854z" fill="#ffffff" data-fill-palette-color="primary"></path><path d="M255.961 101.071l-1.362-3.902 17.957-15.055 1.266 3.626-10.661 8.662c-0.494 0.401-1.049 0.838-1.664 1.31-0.614 0.479-1.205 0.918-1.774 1.316-0.566 0.404-1.054 0.718-1.462 0.941v0l0.055 0.158c0.47-0.046 1.06-0.086 1.771-0.121 0.71-0.034 1.457-0.048 2.24-0.041 0.781 0 1.472-0.005 2.072-0.016v0l13.735 0.146 1.266 3.626z" fill="#ffffff" data-fill-palette-color="primary"></path><path d="M7.067 139.471c0-1.966 1.594-3.56 3.56-3.56 1.966 0 3.56 1.594 3.561 3.56 0 1.966-1.594 3.56-3.561 3.56-1.966 0-3.56-1.594-3.56-3.56z" fill="#ffffff" data-fill-palette-color="primary"></path><path d="M269.789 139.471c0-1.966 1.594-3.56 3.56-3.56 1.966 0 3.56 1.594 3.561 3.56 0 1.966-1.594 3.56-3.561 3.56-1.966 0-3.56-1.594-3.56-3.56z" fill="#ffffff" data-fill-palette-color="primary"></path></g><g id="text-1"><path d="M11.028 184.654l-1.581 0.468-2.326-7.855 1.581-0.468 1.339 2.39 17.4-5.154-0.148-2.742 1.581-0.468 2.326 7.855-1.581 0.468-1.366-2.371-17.4 5.153z" fill="#ffffff" data-fill-palette-color="primary"></path><path d="M39.229 193.087l-5.177 2.777c-0.638 0.342-1.24 0.646-1.809 0.911-0.559 0.268-1.007 0.469-1.346 0.604v0l0.074 0.138c0.862 0.09 1.708 0.394 2.538 0.912 0.833 0.508 1.566 1.351 2.197 2.528v0c1.003 1.87 1.157 3.717 0.463 5.543-0.695 1.825-2.329 3.429-4.904 4.81v0c-1.717 0.921-3.292 1.435-4.728 1.541-1.432 0.113-2.687-0.145-3.766-0.774-1.076-0.623-1.945-1.55-2.606-2.783v0c-0.631-1.177-0.932-2.252-0.901-3.223 0.028-0.978 0.224-1.841 0.589-2.59v0l-0.109-0.202-2.17 0.525-0.947-1.766 21.28-11.416zM33.433 201.643v0c-0.572-1.067-1.222-1.8-1.949-2.199-0.737-0.402-1.59-0.513-2.559-0.332-0.972 0.19-2.102 0.63-3.389 1.32v0l-0.11 0.06c-1.845 0.99-3.096 2.052-3.751 3.184-0.655 1.133-0.542 2.521 0.339 4.165v0c0.72 1.343 1.752 2.08 3.094 2.212 1.348 0.129 2.954-0.306 4.818-1.305v0c1.888-1.013 3.13-2.105 3.725-3.278 0.595-1.172 0.523-2.448-0.218-3.827z" fill="#ffffff" data-fill-palette-color="primary"></path><path d="M48.742 220.261l1.698 2.223-13.534 10.339-1.388-1.816 1.538-1.7-0.076-0.1c-0.69 0.072-1.36-0.003-2.01-0.224-0.65-0.221-1.254-0.548-1.812-0.98-0.548-0.431-1.048-0.942-1.499-1.533v0c-0.824-1.078-1.343-2.113-1.558-3.105-0.215-0.992-0.101-1.949 0.34-2.872 0.441-0.924 1.234-1.823 2.378-2.697v0l8.865-6.773 1.717 2.248-8.707 6.652c-1.078 0.824-1.702 1.686-1.873 2.586-0.165 0.896 0.146 1.858 0.932 2.886v0c0.773 1.012 1.569 1.664 2.388 1.958 0.825 0.289 1.695 0.276 2.611-0.038 0.921-0.318 1.904-0.877 2.949-1.675v0z" fill="#ffffff" data-fill-palette-color="primary"></path><path d="M54.84 226.862l1.954 2.002-12.187 11.897-1.953-2.002zM60.409 223.424v0c0.296 0.304 0.457 0.672 0.481 1.105 0.024 0.433-0.183 0.864-0.62 1.292v0c-0.428 0.418-0.861 0.612-1.299 0.582-0.442-0.025-0.812-0.189-1.108-0.493v0c-0.326-0.334-0.493-0.719-0.503-1.157-0.01-0.428 0.2-0.851 0.628-1.269v0c0.438-0.428 0.869-0.629 1.291-0.605 0.428 0.03 0.804 0.211 1.13 0.545z" fill="#ffffff" data-fill-palette-color="primary"></path><path d="M68.508 229.78l-15.974 18.11-2.097-1.85 15.973-18.11z" fill="#ffffff" data-fill-palette-color="primary"></path><path d="M63.969 256.504v0c-1.746-1.193-2.731-2.755-2.954-4.686-0.219-1.936 0.496-4.11 2.145-6.523v0c1.649-2.412 3.426-3.873 5.333-4.381 1.901-0.513 3.724-0.172 5.471 1.021v0c0.735 0.502 1.313 1.032 1.733 1.589 0.414 0.553 0.715 1.125 0.9 1.715 0.186 0.591 0.288 1.175 0.307 1.752v0l0.155 0.106c0.14-0.242 0.338-0.599 0.594-1.073 0.266-0.475 0.489-0.845 0.67-1.11v0l3.834-5.609 2.309 1.578-13.626 19.937-1.861-1.271 0.945-2.123-0.103-0.071c-0.556 0.21-1.145 0.338-1.768 0.385-0.622 0.047-1.275-0.02-1.96-0.202-0.681-0.187-1.389-0.532-2.124-1.034zM65.647 254.844v0c1.488 1.017 2.81 1.326 3.966 0.929 1.161-0.403 2.302-1.427 3.425-3.07v0l0.288-0.422c1.193-1.746 1.82-3.286 1.88-4.618 0.065-1.329-0.68-2.525-2.237-3.589v0c-1.241-0.848-2.509-0.99-3.804-0.426-1.296 0.564-2.511 1.676-3.645 3.336v0c-1.146 1.677-1.727 3.193-1.743 4.548-0.012 1.349 0.611 2.453 1.87 3.312z" fill="#ffffff" data-fill-palette-color="primary"></path><path d="M102.272 256.487l-0.776 2.016-4.003-1.54-5.34 13.879-2.61-1.004 5.34-13.879-2.786-1.072 0.468-1.217 3.127 0.185 0.356-0.925c0.525-1.364 1.152-2.393 1.882-3.089 0.736-0.693 1.563-1.087 2.478-1.182 0.925-0.099 1.933 0.062 3.024 0.481v0c0.63 0.242 1.188 0.517 1.674 0.823 0.483 0.313 0.884 0.608 1.202 0.887v0l-1.473 1.793c-0.272-0.224-0.597-0.464-0.975-0.722-0.378-0.257-0.785-0.47-1.219-0.637v0c-0.87-0.335-1.632-0.292-2.285 0.128-0.644 0.416-1.206 1.247-1.687 2.493v0l-0.4 1.042z" fill="#ffffff" data-fill-palette-color="primary"></path><path d="M118.239 269.568v0c-0.358 1.373-0.856 2.541-1.495 3.504-0.632 0.964-1.377 1.726-2.235 2.286-0.859 0.567-1.813 0.915-2.861 1.044-1.054 0.128-2.164 0.04-3.328-0.263v0c-1.091-0.284-2.048-0.735-2.872-1.352-0.824-0.617-1.476-1.384-1.957-2.3-0.489-0.911-0.784-1.944-0.885-3.1-0.108-1.157 0.017-2.422 0.374-3.795v0c0.475-1.824 1.187-3.285 2.135-4.383 0.942-1.106 2.076-1.842 3.401-2.209 1.318-0.368 2.768-0.346 4.35 0.066v0c1.495 0.389 2.724 1.066 3.688 2.029 0.964 0.963 1.604 2.162 1.921 3.595 0.318 1.427 0.24 3.053-0.236 4.878zM105.788 266.323v0c-0.337 1.293-0.461 2.457-0.372 3.495 0.087 1.044 0.425 1.915 1.012 2.614 0.58 0.698 1.426 1.191 2.537 1.481v0c1.104 0.288 2.083 0.27 2.936-0.054 0.847-0.326 1.563-0.923 2.149-1.791 0.591-0.86 1.054-1.936 1.392-3.229v0c0.342-1.313 0.458-2.476 0.348-3.489-0.11-1.014-0.452-1.865-1.027-2.554-0.577-0.682-1.428-1.17-2.552-1.464v0c-1.683-0.439-3.049-0.205-4.098 0.701-1.043 0.914-1.819 2.344-2.325 4.29z" fill="#ffffff" data-fill-palette-color="primary"></path><path d="M133.34 262.536v0c0.318 0.037 0.658 0.095 1.02 0.173 0.362 0.078 0.678 0.164 0.947 0.258v0l-0.652 2.508c-0.262-0.094-0.553-0.18-0.873-0.26-0.327-0.08-0.635-0.138-0.926-0.171v0c-0.656-0.077-1.295-0.012-1.914 0.195-0.619 0.201-1.189 0.522-1.71 0.966-0.521 0.436-0.953 0.988-1.298 1.655-0.344 0.66-0.566 1.422-0.667 2.286v0l-1.059 9.027-2.778-0.325 1.985-16.916 2.269 0.267-0.041 3.126 0.125 0.015c0.426-0.587 0.925-1.11 1.497-1.569 0.564-0.452 1.189-0.792 1.874-1.02 0.686-0.235 1.419-0.306 2.201-0.215z" fill="#ffffff" data-fill-palette-color="primary"></path><path d="M156.314 277.379v0c0.423-0.034 0.854-0.104 1.292-0.209 0.438-0.112 0.788-0.221 1.052-0.325v0l0.171 2.122c-0.28 0.169-0.693 0.325-1.24 0.466-0.541 0.134-1.064 0.222-1.57 0.263v0c-0.888 0.072-1.718-0.015-2.492-0.26-0.774-0.245-1.423-0.726-1.948-1.445-0.526-0.725-0.844-1.775-0.955-3.148v0l-0.796-9.882-2.403 0.194-0.107-1.332 2.344-1.309 0.822-3.699 1.644-0.132 0.314 3.901 4.91-0.396 0.173 2.153-4.91 0.396 0.791 9.819c0.083 1.033 0.395 1.779 0.935 2.239 0.532 0.453 1.19 0.647 1.973 0.584z" fill="#ffffff" data-fill-palette-color="primary"></path><path d="M162.992 253.903l1.388 6.949c0.079 0.396 0.143 0.805 0.192 1.228 0.056 0.422 0.096 0.8 0.121 1.136v0l0.184-0.037c0.239-0.651 0.59-1.218 1.054-1.701 0.464-0.483 1.007-0.889 1.63-1.219 0.629-0.331 1.295-0.567 1.997-0.708v0c1.351-0.27 2.523-0.281 3.516-0.032 0.985 0.243 1.795 0.766 2.432 1.568 0.636 0.802 1.097 1.92 1.382 3.353v0l2.174 10.878-2.712 0.542-2.135-10.684c-0.27-1.351-0.772-2.301-1.505-2.849-0.733-0.542-1.744-0.684-3.033-0.426v0c-1.248 0.249-2.178 0.676-2.788 1.28-0.615 0.612-0.983 1.399-1.104 2.36-0.119 0.967-0.048 2.106 0.214 3.416v0l1.724 8.626-2.743 0.548-4.731-23.68z" fill="#ffffff" data-fill-palette-color="primary"></path><path d="M187.116 253.993v0c1.367-0.517 2.654-0.662 3.864-0.435 1.207 0.221 2.274 0.773 3.203 1.656 0.936 0.881 1.677 2.044 2.223 3.488v0l0.598 1.582-10.903 4.123c0.721 1.788 1.698 2.984 2.93 3.589 1.242 0.609 2.653 0.614 4.235 0.016v0c1.015-0.384 1.877-0.818 2.587-1.302 0.71-0.484 1.413-1.063 2.111-1.735v0l0.867 2.294c-0.678 0.666-1.382 1.233-2.112 1.702-0.726 0.46-1.635 0.897-2.728 1.311v0c-1.503 0.568-2.95 0.766-4.34 0.592-1.396-0.171-2.648-0.747-3.754-1.726-1.104-0.973-1.99-2.342-2.657-4.105v0c-0.66-1.744-0.933-3.351-0.82-4.823 0.116-1.464 0.576-2.736 1.381-3.813 0.805-1.078 1.91-1.883 3.315-2.414zM187.899 256.151v0c-1.249 0.473-2.084 1.246-2.503 2.319-0.42 1.074-0.427 2.352-0.023 3.836v0l8.112-3.068c-0.347-0.918-0.787-1.659-1.321-2.223-0.529-0.573-1.15-0.945-1.861-1.115-0.711-0.17-1.513-0.086-2.404 0.251z" fill="#ffffff" data-fill-palette-color="primary"></path><path d="M213.495 240.116l1.19 1.803-3.579 2.363 8.194 12.41-2.334 1.541-8.194-12.41-2.49 1.645-0.719-1.089 1.967-2.437-0.546-0.827c-0.805-1.219-1.279-2.328-1.421-3.326-0.136-1.002 0.023-1.903 0.478-2.704 0.457-0.81 1.173-1.537 2.149-2.182v0c0.563-0.372 1.111-0.667 1.642-0.884 0.535-0.212 1.009-0.366 1.42-0.463v0l0.604 2.24c-0.34 0.091-0.725 0.216-1.154 0.375-0.429 0.158-0.838 0.366-1.227 0.622v0c-0.778 0.514-1.186 1.158-1.224 1.934-0.036 0.766 0.314 1.706 1.05 2.821v0l0.615 0.932z" fill="#ffffff" data-fill-palette-color="primary"></path><path d="M225.475 230.399l2.155-1.782 10.85 13.128-1.762 1.456-1.757-1.472-0.097 0.08c0.098 0.686 0.049 1.359-0.147 2.017-0.196 0.658-0.499 1.274-0.909 1.848-0.409 0.564-0.901 1.083-1.475 1.558v0c-1.046 0.864-2.06 1.423-3.043 1.675-0.983 0.253-1.944 0.176-2.884-0.23-0.94-0.406-1.869-1.163-2.786-2.273v0l-7.107-8.599 2.18-1.802 6.981 8.446c0.864 1.046 1.75 1.636 2.656 1.772 0.902 0.13 1.851-0.217 2.849-1.041v0c0.981-0.811 1.603-1.632 1.864-2.462 0.257-0.835 0.211-1.705-0.137-2.607-0.354-0.908-0.949-1.869-1.787-2.883v0z" fill="#ffffff" data-fill-palette-color="primary"></path><path d="M246.629 230.009v0c0.284-0.316 0.549-0.662 0.795-1.04 0.241-0.382 0.421-0.702 0.54-0.959v0l1.583 1.423c-0.087 0.315-0.28 0.712-0.579 1.191-0.3 0.469-0.62 0.893-0.96 1.27v0c-0.595 0.662-1.258 1.17-1.988 1.525-0.73 0.354-1.533 0.451-2.409 0.29-0.881-0.165-1.833-0.708-2.857-1.629v0l-7.372-6.629-1.612 1.792-0.993-0.893 0.802-2.562-1.946-3.252 1.103-1.226 2.91 2.617 3.293-3.663 1.607 1.445-3.294 3.662 7.325 6.587c0.771 0.693 1.51 1.021 2.218 0.984 0.698-0.037 1.309-0.348 1.835-0.933z" fill="#ffffff" data-fill-palette-color="primary"></path><path d="M246.135 205.425l1.614-2.284 13.908 9.83-1.319 1.866-2.082-0.96-0.072 0.103c0.274 0.637 0.403 1.298 0.386 1.985-0.017 0.687-0.148 1.361-0.394 2.022-0.247 0.651-0.586 1.281-1.016 1.889v0c-0.783 1.108-1.616 1.912-2.498 2.413-0.882 0.501-1.83 0.679-2.844 0.533-1.013-0.145-2.108-0.634-3.284-1.465v0l-9.109-6.439 1.632-2.309 8.948 6.324c1.108 0.783 2.117 1.121 3.027 1.015 0.904-0.11 1.73-0.694 2.477-1.75v0c0.735-1.04 1.12-1.994 1.155-2.864 0.03-0.874-0.242-1.7-0.815-2.481-0.579-0.784-1.405-1.556-2.479-2.314v0z" fill="#ffffff" data-fill-palette-color="primary"></path><path d="M253.757 190.563v0c0.145-0.285 0.316-0.585 0.514-0.898 0.198-0.313 0.387-0.58 0.569-0.8v0l2.129 1.477c-0.179 0.214-0.36 0.457-0.545 0.73-0.188 0.279-0.348 0.549-0.48 0.809v0c-0.299 0.59-0.458 1.211-0.477 1.865-0.025 0.65 0.08 1.296 0.316 1.938 0.23 0.639 0.598 1.235 1.106 1.789 0.501 0.55 1.139 1.022 1.915 1.415v0l8.107 4.11-1.264 2.494-15.191-7.699 1.033-2.039 2.92 1.118 0.057-0.112c-0.404-0.603-0.723-1.252-0.956-1.947-0.23-0.686-0.333-1.389-0.31-2.111 0.016-0.725 0.202-1.438 0.557-2.139z" fill="#ffffff" data-fill-palette-color="primary"></path><path d="M258.065 178.916v0c0.484-1.378 1.202-2.457 2.154-3.236 0.945-0.781 2.055-1.243 3.329-1.385 1.276-0.149 2.643 0.033 4.101 0.544v0l1.595 0.56-3.863 10.998c1.832 0.599 3.376 0.622 4.632 0.068 1.265-0.558 2.178-1.635 2.739-3.23v0c0.36-1.024 0.583-1.963 0.669-2.818 0.086-0.855 0.097-1.765 0.031-2.732v0l2.313 0.813c0.073 0.947 0.054 1.851-0.056 2.712-0.115 0.852-0.366 1.829-0.754 2.932v0c-0.533 1.516-1.313 2.75-2.34 3.701-1.03 0.958-2.276 1.546-3.738 1.762-1.456 0.219-3.073 0.016-4.852-0.609v0c-1.759-0.618-3.165-1.444-4.217-2.477-1.046-1.031-1.723-2.202-2.03-3.511-0.307-1.31-0.211-2.673 0.287-4.092zM260.22 179.707v0c-0.443 1.26-0.388 2.397 0.164 3.409 0.551 1.012 1.525 1.841 2.92 2.486v0l2.874-8.182c-0.926-0.325-1.776-0.465-2.551-0.421-0.779 0.036-1.463 0.271-2.051 0.706-0.588 0.435-1.04 1.102-1.356 2.002z" fill="#ffffff" data-fill-palette-color="primary"></path></g></svg></g></svg></g></svg></g><g></g></svg></g><defs></defs></svg><rect width="279.72" height="279.72" fill="none" stroke="none" visibility="hidden"></rect></g></svg></g></svg>